<svg width="134" height="47" viewBox="0 0 134 47" fill="none" xmlns="http://www.w3.org/2000/svg">
<path d="M0 0.159203V17.8242C2.86461 17.8242 5.25176 20.2114 5.25176 23.076C5.25176 25.9406 2.86461 28.3279 0 28.3279V45.9929H73.2066V0H0V0.159203Z" fill="#2A3375"/>
<path d="M134 46.1521V28.487C131.135 28.487 128.748 26.0999 128.748 23.2353C128.748 20.3707 131.135 17.9835 134 17.9835V0.318359H73.2065V46.3113H134V46.1521Z" fill="#FAAE40"/>
<path d="M21.3255 17.3469L16.8695 24.1901H14.9597V8.43481H11.4585V34.2162H14.9597V27.5322H17.0286L21.3255 34.2162H25.4633L20.0524 25.7815L25.4633 17.3469H21.3255Z" fill="#F8F8EE"/>
<path d="M31.6702 17.3467H28.1689V34.216H31.6702V17.3467Z" fill="#F8F8EE"/>
<path d="M62.7031 24.3493L59.3611 23.3943C58.5654 23.2352 57.9287 22.5987 57.9287 21.9621C57.9287 21.1664 59.0428 20.3706 60.3159 20.3706C61.5891 20.3706 63.0214 20.8481 63.1805 22.4395L66.3634 20.8481C65.7268 18.7792 63.1805 17.1877 60.3159 17.1877C56.8147 17.1877 54.1092 19.4157 54.1092 22.1212C54.1092 24.1901 55.7007 25.9407 57.9287 26.7364L61.2707 27.6913C62.2256 28.0096 62.8622 28.6461 62.8622 29.4418C62.8622 30.5558 61.7483 31.3516 60.1568 31.3516C58.7245 31.3516 57.4513 30.5559 57.133 28.9644L53.791 30.3967C54.4276 32.7839 56.9739 34.5345 60.1568 34.5345C63.658 34.5345 66.5226 32.1473 66.5226 29.2827C66.6817 26.8955 65.0903 25.145 62.7031 24.3493Z" fill="#F8F8EE"/>
<path d="M43.1285 17.0286C38.3541 17.0286 34.3755 21.0072 34.3755 25.7815C34.3755 30.5559 38.3541 34.5345 43.1285 34.5345C47.9028 34.5345 51.8814 30.5559 51.8814 25.7815C51.8814 20.848 47.9028 17.0286 43.1285 17.0286ZM43.1285 30.8742C40.2638 30.8742 37.8767 28.487 37.8767 25.6224C37.8767 22.7578 40.2638 20.3707 43.1285 20.3707C45.9931 20.3707 48.3802 22.7578 48.3802 25.6224C48.2211 28.6462 45.9931 30.8742 43.1285 30.8742Z" fill="#F8F8EE"/>
<path d="M29.9195 15.7551C31.15 15.7551 32.1474 14.7575 32.1474 13.527C32.1474 12.2965 31.15 11.2991 29.9195 11.2991C28.689 11.2991 27.6914 12.2965 27.6914 13.527C27.6914 14.7575 28.689 15.7551 29.9195 15.7551Z" fill="#E55325"/>
<path d="M122.382 17.3469H118.244L113.788 24.1901L109.332 17.3469H105.194L110.605 25.7816L105.194 34.2162H109.332L113.629 27.5322H113.947L118.244 34.2162H122.382L116.971 25.7816L122.382 17.3469Z" fill="#2B3073"/>
<path d="M79.4131 11.2993V14.8005H86.0972V34.2161H89.5984V14.8005H96.2824V11.2993H79.4131Z" fill="#2B3073"/>
<path d="M102.489 17.3469H98.9883V34.2162H102.489V17.3469Z" fill="#2B3073"/>
<path d="M100.739 15.7554C101.969 15.7554 102.967 14.7578 102.967 13.5273C102.967 12.2968 101.969 11.2993 100.739 11.2993C99.5083 11.2993 98.5107 12.2968 98.5107 13.5273C98.5107 14.7578 99.5083 15.7554 100.739 15.7554Z" fill="#E55325"/>
</svg>
